<mxfile host="app.diagrams.net" agent="Mozilla/5.0 (Windows NT 10.0; Win64; x64) AppleWebKit/537.36 (KHTML, like Gecko) Chrome/130.0.0.0 Safari/537.36" version="24.8.4" pages="5">
  <diagram name="Főprogram" id="tnGSm-m996sCxOWpE4W8">
    <mxGraphModel dx="1424" dy="804" grid="1" gridSize="10" guides="1" tooltips="1" connect="1" arrows="1" fold="1" page="1" pageScale="1" pageWidth="1100" pageHeight="850" math="0" shadow="0">
      <root>
        <mxCell id="0" />
        <mxCell id="1" parent="0" />
        <mxCell id="eliIRb35BrtHTwFPxZU--6" style="edgeStyle=orthogonalEdgeStyle;rounded=0;orthogonalLoop=1;jettySize=auto;html=1;entryX=0.5;entryY=0;entryDx=0;entryDy=0;" edge="1" parent="1" source="eliIRb35BrtHTwFPxZU--1" target="eliIRb35BrtHTwFPxZU--3">
          <mxGeometry relative="1" as="geometry" />
        </mxCell>
        <mxCell id="eliIRb35BrtHTwFPxZU--1" value="START" style="ellipse;whiteSpace=wrap;html=1;" vertex="1" parent="1">
          <mxGeometry x="40" y="30" width="120" height="80" as="geometry" />
        </mxCell>
        <mxCell id="eliIRb35BrtHTwFPxZU--2" value="STOP" style="ellipse;whiteSpace=wrap;html=1;" vertex="1" parent="1">
          <mxGeometry x="835" y="1305" width="120" height="80" as="geometry" />
        </mxCell>
        <mxCell id="eliIRb35BrtHTwFPxZU--5" style="edgeStyle=orthogonalEdgeStyle;rounded=0;orthogonalLoop=1;jettySize=auto;html=1;entryX=0.5;entryY=0;entryDx=0;entryDy=0;" edge="1" parent="1" source="eliIRb35BrtHTwFPxZU--3" target="eliIRb35BrtHTwFPxZU--4">
          <mxGeometry relative="1" as="geometry" />
        </mxCell>
        <mxCell id="eliIRb35BrtHTwFPxZU--3" value="KI: üdvözlés" style="shape=parallelogram;perimeter=parallelogramPerimeter;whiteSpace=wrap;html=1;fixedSize=1;" vertex="1" parent="1">
          <mxGeometry x="40" y="190" width="120" height="60" as="geometry" />
        </mxCell>
        <mxCell id="eliIRb35BrtHTwFPxZU--9" style="edgeStyle=orthogonalEdgeStyle;rounded=0;orthogonalLoop=1;jettySize=auto;html=1;entryX=0.5;entryY=0;entryDx=0;entryDy=0;" edge="1" parent="1" source="eliIRb35BrtHTwFPxZU--4" target="eliIRb35BrtHTwFPxZU--7">
          <mxGeometry relative="1" as="geometry" />
        </mxCell>
        <mxCell id="eliIRb35BrtHTwFPxZU--11" value="I" style="edgeLabel;html=1;align=center;verticalAlign=middle;resizable=0;points=[];" vertex="1" connectable="0" parent="eliIRb35BrtHTwFPxZU--9">
          <mxGeometry x="-0.5628" relative="1" as="geometry">
            <mxPoint as="offset" />
          </mxGeometry>
        </mxCell>
        <mxCell id="eliIRb35BrtHTwFPxZU--26" style="edgeStyle=orthogonalEdgeStyle;rounded=0;orthogonalLoop=1;jettySize=auto;html=1;entryX=0.5;entryY=0;entryDx=0;entryDy=0;" edge="1" parent="1" source="eliIRb35BrtHTwFPxZU--4" target="eliIRb35BrtHTwFPxZU--25">
          <mxGeometry relative="1" as="geometry" />
        </mxCell>
        <mxCell id="eliIRb35BrtHTwFPxZU--27" value="H" style="edgeLabel;html=1;align=center;verticalAlign=middle;resizable=0;points=[];" vertex="1" connectable="0" parent="eliIRb35BrtHTwFPxZU--26">
          <mxGeometry x="-0.6308" relative="1" as="geometry">
            <mxPoint as="offset" />
          </mxGeometry>
        </mxCell>
        <mxCell id="eliIRb35BrtHTwFPxZU--4" value="Új felhaszná&lt;div&gt;ló?&lt;/div&gt;" style="rhombus;whiteSpace=wrap;html=1;" vertex="1" parent="1">
          <mxGeometry x="420" y="370" width="190" height="110" as="geometry" />
        </mxCell>
        <mxCell id="eliIRb35BrtHTwFPxZU--39" style="edgeStyle=orthogonalEdgeStyle;rounded=0;orthogonalLoop=1;jettySize=auto;html=1;entryX=0.5;entryY=0;entryDx=0;entryDy=0;" edge="1" parent="1" source="eliIRb35BrtHTwFPxZU--7" target="eliIRb35BrtHTwFPxZU--8">
          <mxGeometry relative="1" as="geometry" />
        </mxCell>
        <mxCell id="eliIRb35BrtHTwFPxZU--7" value="Regisztráció" style="rounded=0;whiteSpace=wrap;html=1;" vertex="1" parent="1">
          <mxGeometry x="180" y="560" width="120" height="60" as="geometry" />
        </mxCell>
        <mxCell id="eliIRb35BrtHTwFPxZU--41" style="edgeStyle=orthogonalEdgeStyle;rounded=0;orthogonalLoop=1;jettySize=auto;html=1;" edge="1" parent="1" source="eliIRb35BrtHTwFPxZU--8">
          <mxGeometry relative="1" as="geometry">
            <mxPoint x="900" y="840" as="targetPoint" />
            <Array as="points">
              <mxPoint x="240" y="840" />
              <mxPoint x="771" y="840" />
            </Array>
          </mxGeometry>
        </mxCell>
        <mxCell id="eliIRb35BrtHTwFPxZU--8" value="Belépés" style="rounded=0;whiteSpace=wrap;html=1;" vertex="1" parent="1">
          <mxGeometry x="180" y="690" width="120" height="60" as="geometry" />
        </mxCell>
        <mxCell id="eliIRb35BrtHTwFPxZU--19" style="edgeStyle=orthogonalEdgeStyle;rounded=0;orthogonalLoop=1;jettySize=auto;html=1;entryX=0.5;entryY=0;entryDx=0;entryDy=0;" edge="1" parent="1" source="eliIRb35BrtHTwFPxZU--16" target="eliIRb35BrtHTwFPxZU--18">
          <mxGeometry relative="1" as="geometry" />
        </mxCell>
        <mxCell id="eliIRb35BrtHTwFPxZU--16" value="Listakezelés" style="rounded=0;whiteSpace=wrap;html=1;" vertex="1" parent="1">
          <mxGeometry x="835" y="910" width="120" height="60" as="geometry" />
        </mxCell>
        <mxCell id="eliIRb35BrtHTwFPxZU--17" value="&lt;font style=&quot;font-size: 16px;&quot;&gt;Főprogram&lt;/font&gt;" style="text;html=1;align=center;verticalAlign=middle;whiteSpace=wrap;rounded=0;" vertex="1" parent="1">
          <mxGeometry x="10" width="60" height="30" as="geometry" />
        </mxCell>
        <mxCell id="eliIRb35BrtHTwFPxZU--45" style="edgeStyle=orthogonalEdgeStyle;rounded=0;orthogonalLoop=1;jettySize=auto;html=1;entryX=0.5;entryY=0;entryDx=0;entryDy=0;" edge="1" parent="1" source="eliIRb35BrtHTwFPxZU--18" target="eliIRb35BrtHTwFPxZU--20">
          <mxGeometry relative="1" as="geometry" />
        </mxCell>
        <mxCell id="eliIRb35BrtHTwFPxZU--18" value="Adatrögzítés" style="rounded=0;whiteSpace=wrap;html=1;" vertex="1" parent="1">
          <mxGeometry x="835" y="1030" width="120" height="60" as="geometry" />
        </mxCell>
        <mxCell id="eliIRb35BrtHTwFPxZU--46" style="edgeStyle=orthogonalEdgeStyle;rounded=0;orthogonalLoop=1;jettySize=auto;html=1;entryX=0.5;entryY=0;entryDx=0;entryDy=0;" edge="1" parent="1" source="eliIRb35BrtHTwFPxZU--20" target="eliIRb35BrtHTwFPxZU--2">
          <mxGeometry relative="1" as="geometry" />
        </mxCell>
        <mxCell id="bgtGDT5cpbmdQVeFY69D-1" value="H" style="edgeLabel;html=1;align=center;verticalAlign=middle;resizable=0;points=[];" vertex="1" connectable="0" parent="eliIRb35BrtHTwFPxZU--46">
          <mxGeometry x="-0.1852" relative="1" as="geometry">
            <mxPoint as="offset" />
          </mxGeometry>
        </mxCell>
        <mxCell id="bgtGDT5cpbmdQVeFY69D-3" style="edgeStyle=orthogonalEdgeStyle;rounded=0;orthogonalLoop=1;jettySize=auto;html=1;endArrow=none;endFill=0;" edge="1" parent="1" source="eliIRb35BrtHTwFPxZU--20">
          <mxGeometry relative="1" as="geometry">
            <mxPoint x="710" y="890" as="targetPoint" />
          </mxGeometry>
        </mxCell>
        <mxCell id="bgtGDT5cpbmdQVeFY69D-5" value="I" style="edgeLabel;html=1;align=center;verticalAlign=middle;resizable=0;points=[];" vertex="1" connectable="0" parent="bgtGDT5cpbmdQVeFY69D-3">
          <mxGeometry x="-0.8398" y="3" relative="1" as="geometry">
            <mxPoint as="offset" />
          </mxGeometry>
        </mxCell>
        <mxCell id="eliIRb35BrtHTwFPxZU--20" value="Új lista?" style="rhombus;whiteSpace=wrap;html=1;" vertex="1" parent="1">
          <mxGeometry x="855" y="1180" width="80" height="80" as="geometry" />
        </mxCell>
        <mxCell id="eliIRb35BrtHTwFPxZU--38" style="edgeStyle=orthogonalEdgeStyle;rounded=0;orthogonalLoop=1;jettySize=auto;html=1;" edge="1" parent="1" source="eliIRb35BrtHTwFPxZU--25">
          <mxGeometry relative="1" as="geometry">
            <mxPoint x="895" y="840" as="targetPoint" />
          </mxGeometry>
        </mxCell>
        <mxCell id="eliIRb35BrtHTwFPxZU--44" value="I" style="edgeLabel;html=1;align=center;verticalAlign=middle;resizable=0;points=[];" vertex="1" connectable="0" parent="eliIRb35BrtHTwFPxZU--38">
          <mxGeometry x="0.074" y="1" relative="1" as="geometry">
            <mxPoint as="offset" />
          </mxGeometry>
        </mxCell>
        <mxCell id="eliIRb35BrtHTwFPxZU--40" style="edgeStyle=orthogonalEdgeStyle;rounded=0;orthogonalLoop=1;jettySize=auto;html=1;entryX=1;entryY=0.5;entryDx=0;entryDy=0;" edge="1" parent="1" source="eliIRb35BrtHTwFPxZU--25" target="eliIRb35BrtHTwFPxZU--8">
          <mxGeometry relative="1" as="geometry" />
        </mxCell>
        <mxCell id="eliIRb35BrtHTwFPxZU--43" value="H" style="edgeLabel;html=1;align=center;verticalAlign=middle;resizable=0;points=[];" vertex="1" connectable="0" parent="eliIRb35BrtHTwFPxZU--40">
          <mxGeometry x="-0.7585" y="-2" relative="1" as="geometry">
            <mxPoint as="offset" />
          </mxGeometry>
        </mxCell>
        <mxCell id="eliIRb35BrtHTwFPxZU--25" value="Nemrég belépett?" style="rhombus;whiteSpace=wrap;html=1;" vertex="1" parent="1">
          <mxGeometry x="830" y="660" width="130" height="120" as="geometry" />
        </mxCell>
        <mxCell id="eliIRb35BrtHTwFPxZU--42" value="" style="endArrow=classic;html=1;rounded=0;entryX=0.512;entryY=0.01;entryDx=0;entryDy=0;entryPerimeter=0;" edge="1" parent="1" target="eliIRb35BrtHTwFPxZU--16">
          <mxGeometry width="50" height="50" relative="1" as="geometry">
            <mxPoint x="895" y="840" as="sourcePoint" />
            <mxPoint x="899.96" y="910" as="targetPoint" />
          </mxGeometry>
        </mxCell>
        <mxCell id="bgtGDT5cpbmdQVeFY69D-4" value="" style="endArrow=classic;html=1;rounded=0;" edge="1" parent="1">
          <mxGeometry width="50" height="50" relative="1" as="geometry">
            <mxPoint x="710" y="890" as="sourcePoint" />
            <mxPoint x="895" y="890" as="targetPoint" />
          </mxGeometry>
        </mxCell>
      </root>
    </mxGraphModel>
  </diagram>
  <diagram id="Kt3D-hANfz-leUERDRaK" name="Regisztráció">
    <mxGraphModel dx="1424" dy="804" grid="1" gridSize="10" guides="1" tooltips="1" connect="1" arrows="1" fold="1" page="1" pageScale="1" pageWidth="850" pageHeight="1100" math="0" shadow="0">
      <root>
        <mxCell id="0" />
        <mxCell id="1" parent="0" />
        <mxCell id="DW3R-afetAsQJMhflJYd-2" style="edgeStyle=orthogonalEdgeStyle;rounded=0;orthogonalLoop=1;jettySize=auto;html=1;entryX=0.5;entryY=0;entryDx=0;entryDy=0;" edge="1" parent="1" source="8kkCf9x5IlJ3f4gc3eoQ-28" target="DW3R-afetAsQJMhflJYd-1">
          <mxGeometry relative="1" as="geometry" />
        </mxCell>
        <mxCell id="8kkCf9x5IlJ3f4gc3eoQ-28" value="START" style="ellipse;whiteSpace=wrap;html=1;" vertex="1" parent="1">
          <mxGeometry x="70" y="40" width="120" height="80" as="geometry" />
        </mxCell>
        <mxCell id="8kkCf9x5IlJ3f4gc3eoQ-29" value="STOP" style="ellipse;whiteSpace=wrap;html=1;" vertex="1" parent="1">
          <mxGeometry x="70" y="1280" width="120" height="80" as="geometry" />
        </mxCell>
        <mxCell id="8kkCf9x5IlJ3f4gc3eoQ-30" value="&lt;font style=&quot;font-size: 16px;&quot;&gt;Regisztráció&lt;/font&gt;" style="text;html=1;align=center;verticalAlign=middle;whiteSpace=wrap;rounded=0;" vertex="1" parent="1">
          <mxGeometry x="20" width="60" height="30" as="geometry" />
        </mxCell>
        <mxCell id="DW3R-afetAsQJMhflJYd-4" style="edgeStyle=orthogonalEdgeStyle;rounded=0;orthogonalLoop=1;jettySize=auto;html=1;entryX=0.5;entryY=0;entryDx=0;entryDy=0;" edge="1" parent="1" source="DW3R-afetAsQJMhflJYd-1" target="DW3R-afetAsQJMhflJYd-3">
          <mxGeometry relative="1" as="geometry" />
        </mxCell>
        <mxCell id="DW3R-afetAsQJMhflJYd-1" value="KI: &quot;Adja meg a felhasználónevét!&quot;" style="shape=parallelogram;perimeter=parallelogramPerimeter;whiteSpace=wrap;html=1;fixedSize=1;" vertex="1" parent="1">
          <mxGeometry x="60" y="200" width="140" height="70" as="geometry" />
        </mxCell>
        <mxCell id="DW3R-afetAsQJMhflJYd-10" style="edgeStyle=orthogonalEdgeStyle;rounded=0;orthogonalLoop=1;jettySize=auto;html=1;entryX=0.5;entryY=0;entryDx=0;entryDy=0;" edge="1" parent="1" source="DW3R-afetAsQJMhflJYd-3" target="DW3R-afetAsQJMhflJYd-9">
          <mxGeometry relative="1" as="geometry" />
        </mxCell>
        <mxCell id="DW3R-afetAsQJMhflJYd-3" value="BE: felhasznalonev" style="shape=parallelogram;perimeter=parallelogramPerimeter;whiteSpace=wrap;html=1;fixedSize=1;" vertex="1" parent="1">
          <mxGeometry x="55" y="320" width="150" height="60" as="geometry" />
        </mxCell>
        <mxCell id="DW3R-afetAsQJMhflJYd-5" style="edgeStyle=orthogonalEdgeStyle;rounded=0;orthogonalLoop=1;jettySize=auto;html=1;entryX=0.5;entryY=0;entryDx=0;entryDy=0;" edge="1" parent="1" source="DW3R-afetAsQJMhflJYd-6" target="DW3R-afetAsQJMhflJYd-7">
          <mxGeometry relative="1" as="geometry" />
        </mxCell>
        <mxCell id="DW3R-afetAsQJMhflJYd-6" value="KI: &quot;Adja meg az email-címét!&quot;" style="shape=parallelogram;perimeter=parallelogramPerimeter;whiteSpace=wrap;html=1;fixedSize=1;" vertex="1" parent="1">
          <mxGeometry x="50" y="590" width="160" height="70" as="geometry" />
        </mxCell>
        <mxCell id="DW3R-afetAsQJMhflJYd-18" style="edgeStyle=orthogonalEdgeStyle;rounded=0;orthogonalLoop=1;jettySize=auto;html=1;entryX=0.5;entryY=0;entryDx=0;entryDy=0;" edge="1" parent="1" source="DW3R-afetAsQJMhflJYd-7" target="DW3R-afetAsQJMhflJYd-17">
          <mxGeometry relative="1" as="geometry" />
        </mxCell>
        <mxCell id="DW3R-afetAsQJMhflJYd-7" value="BE: email" style="shape=parallelogram;perimeter=parallelogramPerimeter;whiteSpace=wrap;html=1;fixedSize=1;" vertex="1" parent="1">
          <mxGeometry x="55" y="730" width="150" height="60" as="geometry" />
        </mxCell>
        <mxCell id="DW3R-afetAsQJMhflJYd-12" style="edgeStyle=orthogonalEdgeStyle;rounded=0;orthogonalLoop=1;jettySize=auto;html=1;endArrow=none;endFill=0;" edge="1" parent="1" source="DW3R-afetAsQJMhflJYd-9">
          <mxGeometry relative="1" as="geometry">
            <mxPoint x="280" y="300" as="targetPoint" />
          </mxGeometry>
        </mxCell>
        <mxCell id="DW3R-afetAsQJMhflJYd-14" value="I" style="edgeLabel;html=1;align=center;verticalAlign=middle;resizable=0;points=[];" vertex="1" connectable="0" parent="DW3R-afetAsQJMhflJYd-12">
          <mxGeometry x="-0.6086" y="-1" relative="1" as="geometry">
            <mxPoint as="offset" />
          </mxGeometry>
        </mxCell>
        <mxCell id="DW3R-afetAsQJMhflJYd-15" style="edgeStyle=orthogonalEdgeStyle;rounded=0;orthogonalLoop=1;jettySize=auto;html=1;entryX=0.5;entryY=0;entryDx=0;entryDy=0;" edge="1" parent="1" source="DW3R-afetAsQJMhflJYd-9" target="DW3R-afetAsQJMhflJYd-6">
          <mxGeometry relative="1" as="geometry" />
        </mxCell>
        <mxCell id="DW3R-afetAsQJMhflJYd-21" value="H" style="edgeLabel;html=1;align=center;verticalAlign=middle;resizable=0;points=[];" vertex="1" connectable="0" parent="DW3R-afetAsQJMhflJYd-15">
          <mxGeometry x="-0.4" y="-1" relative="1" as="geometry">
            <mxPoint as="offset" />
          </mxGeometry>
        </mxCell>
        <mxCell id="DW3R-afetAsQJMhflJYd-9" value="Volt felhasználó?" style="rhombus;whiteSpace=wrap;html=1;" vertex="1" parent="1">
          <mxGeometry x="65" y="420" width="130" height="100" as="geometry" />
        </mxCell>
        <mxCell id="DW3R-afetAsQJMhflJYd-13" value="" style="endArrow=classic;html=1;rounded=0;" edge="1" parent="1">
          <mxGeometry width="50" height="50" relative="1" as="geometry">
            <mxPoint x="280" y="300" as="sourcePoint" />
            <mxPoint x="130" y="300" as="targetPoint" />
          </mxGeometry>
        </mxCell>
        <mxCell id="DW3R-afetAsQJMhflJYd-19" style="edgeStyle=orthogonalEdgeStyle;rounded=0;orthogonalLoop=1;jettySize=auto;html=1;endArrow=none;endFill=0;" edge="1" parent="1" source="DW3R-afetAsQJMhflJYd-17">
          <mxGeometry relative="1" as="geometry">
            <mxPoint x="280" y="700" as="targetPoint" />
          </mxGeometry>
        </mxCell>
        <mxCell id="DW3R-afetAsQJMhflJYd-22" value="I" style="edgeLabel;html=1;align=center;verticalAlign=middle;resizable=0;points=[];" vertex="1" connectable="0" parent="DW3R-afetAsQJMhflJYd-19">
          <mxGeometry x="-0.6848" y="-1" relative="1" as="geometry">
            <mxPoint as="offset" />
          </mxGeometry>
        </mxCell>
        <mxCell id="DW3R-afetAsQJMhflJYd-25" style="edgeStyle=orthogonalEdgeStyle;rounded=0;orthogonalLoop=1;jettySize=auto;html=1;entryX=0.5;entryY=0;entryDx=0;entryDy=0;" edge="1" parent="1" source="DW3R-afetAsQJMhflJYd-17" target="DW3R-afetAsQJMhflJYd-23">
          <mxGeometry relative="1" as="geometry" />
        </mxCell>
        <mxCell id="DW3R-afetAsQJMhflJYd-27" value="H" style="edgeLabel;html=1;align=center;verticalAlign=middle;resizable=0;points=[];" vertex="1" connectable="0" parent="DW3R-afetAsQJMhflJYd-25">
          <mxGeometry x="-0.16" y="1" relative="1" as="geometry">
            <mxPoint as="offset" />
          </mxGeometry>
        </mxCell>
        <mxCell id="DW3R-afetAsQJMhflJYd-17" value="Volt e-mail cím?" style="rhombus;whiteSpace=wrap;html=1;" vertex="1" parent="1">
          <mxGeometry x="65" y="850" width="130" height="100" as="geometry" />
        </mxCell>
        <mxCell id="DW3R-afetAsQJMhflJYd-20" value="" style="endArrow=classic;html=1;rounded=0;" edge="1" parent="1">
          <mxGeometry width="50" height="50" relative="1" as="geometry">
            <mxPoint x="280" y="700" as="sourcePoint" />
            <mxPoint x="130" y="700" as="targetPoint" />
          </mxGeometry>
        </mxCell>
        <mxCell id="DW3R-afetAsQJMhflJYd-26" style="edgeStyle=orthogonalEdgeStyle;rounded=0;orthogonalLoop=1;jettySize=auto;html=1;entryX=0.5;entryY=0;entryDx=0;entryDy=0;" edge="1" parent="1" source="DW3R-afetAsQJMhflJYd-23" target="DW3R-afetAsQJMhflJYd-24">
          <mxGeometry relative="1" as="geometry" />
        </mxCell>
        <mxCell id="DW3R-afetAsQJMhflJYd-23" value="KI: &quot;Adjon meg egy jelszót!&quot;" style="shape=parallelogram;perimeter=parallelogramPerimeter;whiteSpace=wrap;html=1;fixedSize=1;" vertex="1" parent="1">
          <mxGeometry x="40" y="1000" width="180" height="70" as="geometry" />
        </mxCell>
        <mxCell id="DW3R-afetAsQJMhflJYd-28" style="edgeStyle=orthogonalEdgeStyle;rounded=0;orthogonalLoop=1;jettySize=auto;html=1;entryX=0.5;entryY=0;entryDx=0;entryDy=0;" edge="1" parent="1" source="DW3R-afetAsQJMhflJYd-24" target="8kkCf9x5IlJ3f4gc3eoQ-29">
          <mxGeometry relative="1" as="geometry" />
        </mxCell>
        <mxCell id="DW3R-afetAsQJMhflJYd-24" value="BE: jelszo" style="shape=parallelogram;perimeter=parallelogramPerimeter;whiteSpace=wrap;html=1;fixedSize=1;" vertex="1" parent="1">
          <mxGeometry x="55" y="1140" width="150" height="60" as="geometry" />
        </mxCell>
      </root>
    </mxGraphModel>
  </diagram>
  <diagram id="IL-L0KQzMiO4hKfhvKAT" name="Belépés">
    <mxGraphModel dx="1675" dy="946" grid="1" gridSize="10" guides="1" tooltips="1" connect="1" arrows="1" fold="1" page="1" pageScale="1" pageWidth="850" pageHeight="1100" math="0" shadow="0">
      <root>
        <mxCell id="0" />
        <mxCell id="1" parent="0" />
        <mxCell id="yHxr87gfsWvkoZdM-7hX-5" style="edgeStyle=orthogonalEdgeStyle;rounded=0;orthogonalLoop=1;jettySize=auto;html=1;entryX=0.5;entryY=0;entryDx=0;entryDy=0;" edge="1" parent="1" source="5ARE8LPv0HIUe0C1nW4R-1" target="LMI0bxkGpARFNAVUoUFi-1">
          <mxGeometry relative="1" as="geometry" />
        </mxCell>
        <mxCell id="5ARE8LPv0HIUe0C1nW4R-1" value="START" style="ellipse;whiteSpace=wrap;html=1;" vertex="1" parent="1">
          <mxGeometry x="57.5" y="50" width="120" height="80" as="geometry" />
        </mxCell>
        <mxCell id="5ARE8LPv0HIUe0C1nW4R-2" value="STOP" style="ellipse;whiteSpace=wrap;html=1;" vertex="1" parent="1">
          <mxGeometry x="540" y="730" width="120" height="80" as="geometry" />
        </mxCell>
        <mxCell id="5ARE8LPv0HIUe0C1nW4R-3" value="&lt;font style=&quot;font-size: 16px;&quot;&gt;Belépés&lt;/font&gt;" style="text;html=1;align=center;verticalAlign=middle;whiteSpace=wrap;rounded=0;" vertex="1" parent="1">
          <mxGeometry width="60" height="30" as="geometry" />
        </mxCell>
        <mxCell id="yHxr87gfsWvkoZdM-7hX-4" style="edgeStyle=orthogonalEdgeStyle;rounded=0;orthogonalLoop=1;jettySize=auto;html=1;entryX=0.5;entryY=0;entryDx=0;entryDy=0;" edge="1" parent="1" source="LMI0bxkGpARFNAVUoUFi-1" target="yHxr87gfsWvkoZdM-7hX-1">
          <mxGeometry relative="1" as="geometry" />
        </mxCell>
        <mxCell id="yHxr87gfsWvkoZdM-7hX-6" value="I" style="edgeLabel;html=1;align=center;verticalAlign=middle;resizable=0;points=[];" vertex="1" connectable="0" parent="yHxr87gfsWvkoZdM-7hX-4">
          <mxGeometry x="-0.2" relative="1" as="geometry">
            <mxPoint as="offset" />
          </mxGeometry>
        </mxCell>
        <mxCell id="yHxr87gfsWvkoZdM-7hX-12" style="edgeStyle=orthogonalEdgeStyle;rounded=0;orthogonalLoop=1;jettySize=auto;html=1;" edge="1" parent="1" source="LMI0bxkGpARFNAVUoUFi-1" target="yHxr87gfsWvkoZdM-7hX-11">
          <mxGeometry relative="1" as="geometry" />
        </mxCell>
        <mxCell id="yHxr87gfsWvkoZdM-7hX-14" value="H" style="edgeLabel;html=1;align=center;verticalAlign=middle;resizable=0;points=[];" vertex="1" connectable="0" parent="yHxr87gfsWvkoZdM-7hX-12">
          <mxGeometry x="-0.7255" y="-2" relative="1" as="geometry">
            <mxPoint as="offset" />
          </mxGeometry>
        </mxCell>
        <mxCell id="LMI0bxkGpARFNAVUoUFi-1" value="Eltelt 1 óra az utolsó belépés óta?" style="rhombus;whiteSpace=wrap;html=1;" vertex="1" parent="1">
          <mxGeometry x="50" y="180" width="135" height="130" as="geometry" />
        </mxCell>
        <mxCell id="yHxr87gfsWvkoZdM-7hX-18" style="edgeStyle=orthogonalEdgeStyle;rounded=0;orthogonalLoop=1;jettySize=auto;html=1;entryX=0.5;entryY=0;entryDx=0;entryDy=0;" edge="1" parent="1" source="yHxr87gfsWvkoZdM-7hX-1" target="yHxr87gfsWvkoZdM-7hX-15">
          <mxGeometry relative="1" as="geometry" />
        </mxCell>
        <mxCell id="yHxr87gfsWvkoZdM-7hX-1" value="KI: &quot;Lejárt a munkamenet, jelentkezzen be újra!&quot;" style="shape=parallelogram;perimeter=parallelogramPerimeter;whiteSpace=wrap;html=1;fixedSize=1;" vertex="1" parent="1">
          <mxGeometry x="32.5" y="390" width="170" height="110" as="geometry" />
        </mxCell>
        <mxCell id="yHxr87gfsWvkoZdM-7hX-8" style="edgeStyle=orthogonalEdgeStyle;rounded=0;orthogonalLoop=1;jettySize=auto;html=1;endArrow=none;endFill=0;" edge="1" parent="1" source="yHxr87gfsWvkoZdM-7hX-2">
          <mxGeometry relative="1" as="geometry">
            <mxPoint x="20" y="150" as="targetPoint" />
          </mxGeometry>
        </mxCell>
        <mxCell id="yHxr87gfsWvkoZdM-7hX-2" value="Új token generálás" style="rounded=0;whiteSpace=wrap;html=1;" vertex="1" parent="1">
          <mxGeometry x="57.5" y="900" width="120" height="60" as="geometry" />
        </mxCell>
        <mxCell id="yHxr87gfsWvkoZdM-7hX-9" value="" style="endArrow=classic;html=1;rounded=0;" edge="1" parent="1">
          <mxGeometry width="50" height="50" relative="1" as="geometry">
            <mxPoint x="20" y="150" as="sourcePoint" />
            <mxPoint x="120" y="150" as="targetPoint" />
          </mxGeometry>
        </mxCell>
        <mxCell id="yHxr87gfsWvkoZdM-7hX-13" style="edgeStyle=orthogonalEdgeStyle;rounded=0;orthogonalLoop=1;jettySize=auto;html=1;entryX=0.5;entryY=0;entryDx=0;entryDy=0;" edge="1" parent="1" source="yHxr87gfsWvkoZdM-7hX-11" target="5ARE8LPv0HIUe0C1nW4R-2">
          <mxGeometry relative="1" as="geometry" />
        </mxCell>
        <mxCell id="yHxr87gfsWvkoZdM-7hX-11" value="KI: &quot;Sikeres bejelentkezés!&quot;" style="shape=parallelogram;perimeter=parallelogramPerimeter;whiteSpace=wrap;html=1;fixedSize=1;" vertex="1" parent="1">
          <mxGeometry x="540" y="570" width="120" height="60" as="geometry" />
        </mxCell>
        <mxCell id="yHxr87gfsWvkoZdM-7hX-15" value="BE: email + jelszo" style="shape=parallelogram;perimeter=parallelogramPerimeter;whiteSpace=wrap;html=1;fixedSize=1;" vertex="1" parent="1">
          <mxGeometry x="57.5" y="570" width="120" height="60" as="geometry" />
        </mxCell>
        <mxCell id="yHxr87gfsWvkoZdM-7hX-24" style="edgeStyle=orthogonalEdgeStyle;rounded=0;orthogonalLoop=1;jettySize=auto;html=1;" edge="1" parent="1" source="yHxr87gfsWvkoZdM-7hX-23">
          <mxGeometry relative="1" as="geometry">
            <mxPoint x="117.5" y="900" as="targetPoint" />
          </mxGeometry>
        </mxCell>
        <mxCell id="yHxr87gfsWvkoZdM-7hX-31" value="I" style="edgeLabel;html=1;align=center;verticalAlign=middle;resizable=0;points=[];" vertex="1" connectable="0" parent="yHxr87gfsWvkoZdM-7hX-24">
          <mxGeometry x="-0.2036" y="1" relative="1" as="geometry">
            <mxPoint as="offset" />
          </mxGeometry>
        </mxCell>
        <mxCell id="yHxr87gfsWvkoZdM-7hX-26" style="edgeStyle=orthogonalEdgeStyle;rounded=0;orthogonalLoop=1;jettySize=auto;html=1;" edge="1" parent="1" source="yHxr87gfsWvkoZdM-7hX-23" target="yHxr87gfsWvkoZdM-7hX-25">
          <mxGeometry relative="1" as="geometry" />
        </mxCell>
        <mxCell id="yHxr87gfsWvkoZdM-7hX-32" value="H" style="edgeLabel;html=1;align=center;verticalAlign=middle;resizable=0;points=[];" vertex="1" connectable="0" parent="yHxr87gfsWvkoZdM-7hX-26">
          <mxGeometry x="-0.0759" y="-2" relative="1" as="geometry">
            <mxPoint x="1" as="offset" />
          </mxGeometry>
        </mxCell>
        <mxCell id="yHxr87gfsWvkoZdM-7hX-23" value="Helyes adatok?" style="rhombus;whiteSpace=wrap;html=1;" vertex="1" parent="1">
          <mxGeometry x="77.5" y="710" width="80" height="80" as="geometry" />
        </mxCell>
        <mxCell id="yHxr87gfsWvkoZdM-7hX-25" value="KI: &quot;Hibás adatok!&quot;" style="shape=parallelogram;perimeter=parallelogramPerimeter;whiteSpace=wrap;html=1;fixedSize=1;" vertex="1" parent="1">
          <mxGeometry x="220" y="720" width="120" height="60" as="geometry" />
        </mxCell>
        <mxCell id="yHxr87gfsWvkoZdM-7hX-29" value="" style="endArrow=none;html=1;rounded=0;exitX=0.5;exitY=0;exitDx=0;exitDy=0;" edge="1" parent="1" source="yHxr87gfsWvkoZdM-7hX-25">
          <mxGeometry width="50" height="50" relative="1" as="geometry">
            <mxPoint x="180" y="690" as="sourcePoint" />
            <mxPoint x="280" y="530" as="targetPoint" />
          </mxGeometry>
        </mxCell>
        <mxCell id="yHxr87gfsWvkoZdM-7hX-30" value="" style="endArrow=classic;html=1;rounded=0;" edge="1" parent="1">
          <mxGeometry width="50" height="50" relative="1" as="geometry">
            <mxPoint x="280" y="530" as="sourcePoint" />
            <mxPoint x="120" y="530" as="targetPoint" />
          </mxGeometry>
        </mxCell>
        <mxCell id="yHxr87gfsWvkoZdM-7hX-33" style="edgeStyle=orthogonalEdgeStyle;rounded=0;orthogonalLoop=1;jettySize=auto;html=1;entryX=0.508;entryY=0.039;entryDx=0;entryDy=0;entryPerimeter=0;" edge="1" parent="1" source="yHxr87gfsWvkoZdM-7hX-15" target="yHxr87gfsWvkoZdM-7hX-23">
          <mxGeometry relative="1" as="geometry" />
        </mxCell>
      </root>
    </mxGraphModel>
  </diagram>
  <diagram id="B4ThWcg7-wwZpsnUeOWK" name="Listakezelés">
    <mxGraphModel dx="1675" dy="838" grid="1" gridSize="10" guides="1" tooltips="1" connect="1" arrows="1" fold="1" page="1" pageScale="1" pageWidth="850" pageHeight="1100" math="0" shadow="0">
      <root>
        <mxCell id="0" />
        <mxCell id="1" parent="0" />
        <mxCell id="TDxHErqlgbBZtYlwiEiw-1" value="&lt;font style=&quot;font-size: 16px;&quot;&gt;Listakezelés&lt;/font&gt;" style="text;html=1;align=center;verticalAlign=middle;whiteSpace=wrap;rounded=0;" parent="1" vertex="1">
          <mxGeometry width="90" height="30" as="geometry" />
        </mxCell>
        <mxCell id="7jU_pNBLG3XUP3m-4l1U-4" style="edgeStyle=orthogonalEdgeStyle;rounded=0;orthogonalLoop=1;jettySize=auto;html=1;entryX=0.5;entryY=0;entryDx=0;entryDy=0;" edge="1" parent="1" source="TDxHErqlgbBZtYlwiEiw-2" target="7jU_pNBLG3XUP3m-4l1U-1">
          <mxGeometry relative="1" as="geometry" />
        </mxCell>
        <mxCell id="TDxHErqlgbBZtYlwiEiw-2" value="START" style="ellipse;whiteSpace=wrap;html=1;" parent="1" vertex="1">
          <mxGeometry x="55" y="40" width="120" height="80" as="geometry" />
        </mxCell>
        <mxCell id="TDxHErqlgbBZtYlwiEiw-3" value="STOP" style="ellipse;whiteSpace=wrap;html=1;" parent="1" vertex="1">
          <mxGeometry x="460" y="1680" width="120" height="80" as="geometry" />
        </mxCell>
        <mxCell id="7jU_pNBLG3XUP3m-4l1U-5" style="edgeStyle=orthogonalEdgeStyle;rounded=0;orthogonalLoop=1;jettySize=auto;html=1;entryX=0.5;entryY=0;entryDx=0;entryDy=0;" edge="1" parent="1" source="7jU_pNBLG3XUP3m-4l1U-1" target="7jU_pNBLG3XUP3m-4l1U-2">
          <mxGeometry relative="1" as="geometry" />
        </mxCell>
        <mxCell id="7jU_pNBLG3XUP3m-4l1U-1" value="KI: Felhasználói lehetőségek megjelenítése" style="shape=parallelogram;perimeter=parallelogramPerimeter;whiteSpace=wrap;html=1;fixedSize=1;" vertex="1" parent="1">
          <mxGeometry x="20" y="170" width="190" height="90" as="geometry" />
        </mxCell>
        <mxCell id="7jU_pNBLG3XUP3m-4l1U-6" style="edgeStyle=orthogonalEdgeStyle;rounded=0;orthogonalLoop=1;jettySize=auto;html=1;entryX=0.5;entryY=0;entryDx=0;entryDy=0;" edge="1" parent="1" source="7jU_pNBLG3XUP3m-4l1U-2" target="7jU_pNBLG3XUP3m-4l1U-3">
          <mxGeometry relative="1" as="geometry" />
        </mxCell>
        <mxCell id="7jU_pNBLG3XUP3m-4l1U-7" value="I" style="edgeLabel;html=1;align=center;verticalAlign=middle;resizable=0;points=[];" vertex="1" connectable="0" parent="7jU_pNBLG3XUP3m-4l1U-6">
          <mxGeometry x="-0.3" y="-2" relative="1" as="geometry">
            <mxPoint as="offset" />
          </mxGeometry>
        </mxCell>
        <mxCell id="7jU_pNBLG3XUP3m-4l1U-15" style="edgeStyle=orthogonalEdgeStyle;rounded=0;orthogonalLoop=1;jettySize=auto;html=1;entryX=0.5;entryY=0;entryDx=0;entryDy=0;" edge="1" parent="1" source="7jU_pNBLG3XUP3m-4l1U-2" target="7jU_pNBLG3XUP3m-4l1U-17">
          <mxGeometry relative="1" as="geometry">
            <mxPoint x="430" y="480" as="targetPoint" />
          </mxGeometry>
        </mxCell>
        <mxCell id="7jU_pNBLG3XUP3m-4l1U-16" value="H" style="edgeLabel;html=1;align=center;verticalAlign=middle;resizable=0;points=[];" vertex="1" connectable="0" parent="7jU_pNBLG3XUP3m-4l1U-15">
          <mxGeometry x="-0.5906" relative="1" as="geometry">
            <mxPoint as="offset" />
          </mxGeometry>
        </mxCell>
        <mxCell id="7jU_pNBLG3XUP3m-4l1U-2" value="Új lista?" style="rhombus;whiteSpace=wrap;html=1;" vertex="1" parent="1">
          <mxGeometry x="75" y="310" width="80" height="80" as="geometry" />
        </mxCell>
        <mxCell id="7jU_pNBLG3XUP3m-4l1U-9" style="edgeStyle=orthogonalEdgeStyle;rounded=0;orthogonalLoop=1;jettySize=auto;html=1;entryX=0.5;entryY=0;entryDx=0;entryDy=0;" edge="1" parent="1" source="7jU_pNBLG3XUP3m-4l1U-3" target="7jU_pNBLG3XUP3m-4l1U-8">
          <mxGeometry relative="1" as="geometry" />
        </mxCell>
        <mxCell id="7jU_pNBLG3XUP3m-4l1U-3" value="BE: Lista neve megadása" style="shape=parallelogram;perimeter=parallelogramPerimeter;whiteSpace=wrap;html=1;fixedSize=1;" vertex="1" parent="1">
          <mxGeometry x="55" y="450" width="120" height="60" as="geometry" />
        </mxCell>
        <mxCell id="7jU_pNBLG3XUP3m-4l1U-11" style="edgeStyle=orthogonalEdgeStyle;rounded=0;orthogonalLoop=1;jettySize=auto;html=1;entryX=0.5;entryY=0;entryDx=0;entryDy=0;" edge="1" parent="1" source="7jU_pNBLG3XUP3m-4l1U-8" target="7jU_pNBLG3XUP3m-4l1U-10">
          <mxGeometry relative="1" as="geometry" />
        </mxCell>
        <mxCell id="7jU_pNBLG3XUP3m-4l1U-12" value="I" style="edgeLabel;html=1;align=center;verticalAlign=middle;resizable=0;points=[];" vertex="1" connectable="0" parent="7jU_pNBLG3XUP3m-4l1U-11">
          <mxGeometry x="-0.4" relative="1" as="geometry">
            <mxPoint as="offset" />
          </mxGeometry>
        </mxCell>
        <mxCell id="7jU_pNBLG3XUP3m-4l1U-20" style="edgeStyle=orthogonalEdgeStyle;rounded=0;orthogonalLoop=1;jettySize=auto;html=1;endArrow=none;endFill=0;" edge="1" parent="1" source="7jU_pNBLG3XUP3m-4l1U-8">
          <mxGeometry relative="1" as="geometry">
            <mxPoint x="30" y="290" as="targetPoint" />
          </mxGeometry>
        </mxCell>
        <mxCell id="7jU_pNBLG3XUP3m-4l1U-22" value="H" style="edgeLabel;html=1;align=center;verticalAlign=middle;resizable=0;points=[];" vertex="1" connectable="0" parent="7jU_pNBLG3XUP3m-4l1U-20">
          <mxGeometry x="-0.8771" y="-2" relative="1" as="geometry">
            <mxPoint as="offset" />
          </mxGeometry>
        </mxCell>
        <mxCell id="7jU_pNBLG3XUP3m-4l1U-8" value="Megosztás másokkal?" style="rhombus;whiteSpace=wrap;html=1;" vertex="1" parent="1">
          <mxGeometry x="70" y="550" width="90" height="90" as="geometry" />
        </mxCell>
        <mxCell id="7jU_pNBLG3XUP3m-4l1U-14" style="edgeStyle=orthogonalEdgeStyle;rounded=0;orthogonalLoop=1;jettySize=auto;html=1;entryX=0.5;entryY=0;entryDx=0;entryDy=0;" edge="1" parent="1" source="7jU_pNBLG3XUP3m-4l1U-10" target="7jU_pNBLG3XUP3m-4l1U-13">
          <mxGeometry relative="1" as="geometry" />
        </mxCell>
        <mxCell id="7jU_pNBLG3XUP3m-4l1U-10" value="Megosztási beállítások megadása" style="rounded=0;whiteSpace=wrap;html=1;" vertex="1" parent="1">
          <mxGeometry x="55" y="680" width="120" height="60" as="geometry" />
        </mxCell>
        <mxCell id="7jU_pNBLG3XUP3m-4l1U-13" value="KI: &quot;Lista létrejött.&quot;" style="shape=parallelogram;perimeter=parallelogramPerimeter;whiteSpace=wrap;html=1;fixedSize=1;" vertex="1" parent="1">
          <mxGeometry x="50" y="790" width="130" height="60" as="geometry" />
        </mxCell>
        <mxCell id="7jU_pNBLG3XUP3m-4l1U-19" style="edgeStyle=orthogonalEdgeStyle;rounded=0;orthogonalLoop=1;jettySize=auto;html=1;entryX=0.5;entryY=0;entryDx=0;entryDy=0;" edge="1" parent="1" source="7jU_pNBLG3XUP3m-4l1U-17" target="7jU_pNBLG3XUP3m-4l1U-18">
          <mxGeometry relative="1" as="geometry" />
        </mxCell>
        <mxCell id="7jU_pNBLG3XUP3m-4l1U-23" value="I" style="edgeLabel;html=1;align=center;verticalAlign=middle;resizable=0;points=[];" vertex="1" connectable="0" parent="7jU_pNBLG3XUP3m-4l1U-19">
          <mxGeometry x="0.2467" y="-3" relative="1" as="geometry">
            <mxPoint as="offset" />
          </mxGeometry>
        </mxCell>
        <mxCell id="7jU_pNBLG3XUP3m-4l1U-60" style="edgeStyle=orthogonalEdgeStyle;rounded=0;orthogonalLoop=1;jettySize=auto;html=1;entryX=0.5;entryY=0;entryDx=0;entryDy=0;" edge="1" parent="1" source="7jU_pNBLG3XUP3m-4l1U-17" target="7jU_pNBLG3XUP3m-4l1U-56">
          <mxGeometry relative="1" as="geometry" />
        </mxCell>
        <mxCell id="7jU_pNBLG3XUP3m-4l1U-61" value="H" style="edgeLabel;html=1;align=center;verticalAlign=middle;resizable=0;points=[];" vertex="1" connectable="0" parent="7jU_pNBLG3XUP3m-4l1U-60">
          <mxGeometry x="-0.529" y="-1" relative="1" as="geometry">
            <mxPoint as="offset" />
          </mxGeometry>
        </mxCell>
        <mxCell id="7jU_pNBLG3XUP3m-4l1U-17" value="Meglévő lista szerkesztése?" style="rhombus;whiteSpace=wrap;html=1;" vertex="1" parent="1">
          <mxGeometry x="235" y="430" width="110" height="110" as="geometry" />
        </mxCell>
        <mxCell id="7jU_pNBLG3XUP3m-4l1U-25" style="edgeStyle=orthogonalEdgeStyle;rounded=0;orthogonalLoop=1;jettySize=auto;html=1;entryX=0.5;entryY=0;entryDx=0;entryDy=0;" edge="1" parent="1" source="7jU_pNBLG3XUP3m-4l1U-18" target="7jU_pNBLG3XUP3m-4l1U-24">
          <mxGeometry relative="1" as="geometry">
            <Array as="points">
              <mxPoint x="286" y="740" />
            </Array>
          </mxGeometry>
        </mxCell>
        <mxCell id="7jU_pNBLG3XUP3m-4l1U-18" value="Választott lista betöltése" style="rounded=0;whiteSpace=wrap;html=1;" vertex="1" parent="1">
          <mxGeometry x="230" y="620" width="120" height="60" as="geometry" />
        </mxCell>
        <mxCell id="7jU_pNBLG3XUP3m-4l1U-21" value="" style="endArrow=classic;html=1;rounded=0;" edge="1" parent="1">
          <mxGeometry width="50" height="50" relative="1" as="geometry">
            <mxPoint x="30" y="290" as="sourcePoint" />
            <mxPoint x="115" y="290" as="targetPoint" />
          </mxGeometry>
        </mxCell>
        <mxCell id="7jU_pNBLG3XUP3m-4l1U-28" style="edgeStyle=orthogonalEdgeStyle;rounded=0;orthogonalLoop=1;jettySize=auto;html=1;entryX=0.5;entryY=0;entryDx=0;entryDy=0;" edge="1" parent="1" target="7jU_pNBLG3XUP3m-4l1U-26">
          <mxGeometry relative="1" as="geometry">
            <mxPoint x="285" y="940" as="sourcePoint" />
          </mxGeometry>
        </mxCell>
        <mxCell id="7jU_pNBLG3XUP3m-4l1U-44" value="I" style="edgeLabel;html=1;align=center;verticalAlign=middle;resizable=0;points=[];" vertex="1" connectable="0" parent="7jU_pNBLG3XUP3m-4l1U-28">
          <mxGeometry x="-0.2333" y="1" relative="1" as="geometry">
            <mxPoint as="offset" />
          </mxGeometry>
        </mxCell>
        <mxCell id="7jU_pNBLG3XUP3m-4l1U-39" style="edgeStyle=orthogonalEdgeStyle;rounded=0;orthogonalLoop=1;jettySize=auto;html=1;entryX=0.5;entryY=0;entryDx=0;entryDy=0;exitX=1;exitY=0.5;exitDx=0;exitDy=0;" edge="1" parent="1" source="7jU_pNBLG3XUP3m-4l1U-24" target="7jU_pNBLG3XUP3m-4l1U-38">
          <mxGeometry relative="1" as="geometry">
            <mxPoint x="335" y="890" as="sourcePoint" />
          </mxGeometry>
        </mxCell>
        <mxCell id="7jU_pNBLG3XUP3m-4l1U-45" value="H" style="edgeLabel;html=1;align=center;verticalAlign=middle;resizable=0;points=[];" vertex="1" connectable="0" parent="7jU_pNBLG3XUP3m-4l1U-39">
          <mxGeometry x="-0.4721" relative="1" as="geometry">
            <mxPoint as="offset" />
          </mxGeometry>
        </mxCell>
        <mxCell id="7jU_pNBLG3XUP3m-4l1U-24" value="Termék hozzáadás?" style="rhombus;whiteSpace=wrap;html=1;" vertex="1" parent="1">
          <mxGeometry x="235.5" y="850" width="100" height="100" as="geometry" />
        </mxCell>
        <mxCell id="7jU_pNBLG3XUP3m-4l1U-29" style="edgeStyle=orthogonalEdgeStyle;rounded=0;orthogonalLoop=1;jettySize=auto;html=1;entryX=0.5;entryY=0;entryDx=0;entryDy=0;" edge="1" parent="1" source="7jU_pNBLG3XUP3m-4l1U-26" target="7jU_pNBLG3XUP3m-4l1U-27">
          <mxGeometry relative="1" as="geometry" />
        </mxCell>
        <mxCell id="7jU_pNBLG3XUP3m-4l1U-26" value="KI: &quot;Adja meg a termék adatait!&quot;" style="shape=parallelogram;perimeter=parallelogramPerimeter;whiteSpace=wrap;html=1;fixedSize=1;" vertex="1" parent="1">
          <mxGeometry x="225" y="980" width="120" height="60" as="geometry" />
        </mxCell>
        <mxCell id="7jU_pNBLG3XUP3m-4l1U-32" style="edgeStyle=orthogonalEdgeStyle;rounded=0;orthogonalLoop=1;jettySize=auto;html=1;entryX=0.5;entryY=0;entryDx=0;entryDy=0;" edge="1" parent="1" source="7jU_pNBLG3XUP3m-4l1U-27" target="7jU_pNBLG3XUP3m-4l1U-30">
          <mxGeometry relative="1" as="geometry" />
        </mxCell>
        <mxCell id="7jU_pNBLG3XUP3m-4l1U-27" value="BE: nev + kategoria + mennyiseg + megjegyzes hozzáadása" style="shape=parallelogram;perimeter=parallelogramPerimeter;whiteSpace=wrap;html=1;fixedSize=1;" vertex="1" parent="1">
          <mxGeometry x="178" y="1110" width="215" height="90" as="geometry" />
        </mxCell>
        <mxCell id="7jU_pNBLG3XUP3m-4l1U-33" style="edgeStyle=orthogonalEdgeStyle;rounded=0;orthogonalLoop=1;jettySize=auto;html=1;endArrow=none;endFill=0;" edge="1" parent="1" source="7jU_pNBLG3XUP3m-4l1U-30">
          <mxGeometry relative="1" as="geometry">
            <mxPoint x="160" y="1070" as="targetPoint" />
          </mxGeometry>
        </mxCell>
        <mxCell id="7jU_pNBLG3XUP3m-4l1U-35" value="I" style="edgeLabel;html=1;align=center;verticalAlign=middle;resizable=0;points=[];" vertex="1" connectable="0" parent="7jU_pNBLG3XUP3m-4l1U-33">
          <mxGeometry x="-0.797" y="-3" relative="1" as="geometry">
            <mxPoint as="offset" />
          </mxGeometry>
        </mxCell>
        <mxCell id="7jU_pNBLG3XUP3m-4l1U-36" style="edgeStyle=orthogonalEdgeStyle;rounded=0;orthogonalLoop=1;jettySize=auto;html=1;endArrow=none;endFill=0;" edge="1" parent="1" source="7jU_pNBLG3XUP3m-4l1U-30">
          <mxGeometry relative="1" as="geometry">
            <mxPoint x="285" y="1580" as="targetPoint" />
          </mxGeometry>
        </mxCell>
        <mxCell id="7jU_pNBLG3XUP3m-4l1U-30" value="Újabb termék?" style="rhombus;whiteSpace=wrap;html=1;" vertex="1" parent="1">
          <mxGeometry x="230" y="1310" width="110" height="110" as="geometry" />
        </mxCell>
        <mxCell id="7jU_pNBLG3XUP3m-4l1U-34" value="" style="endArrow=classic;html=1;rounded=0;" edge="1" parent="1">
          <mxGeometry width="50" height="50" relative="1" as="geometry">
            <mxPoint x="160" y="1070" as="sourcePoint" />
            <mxPoint x="284" y="1070" as="targetPoint" />
          </mxGeometry>
        </mxCell>
        <mxCell id="7jU_pNBLG3XUP3m-4l1U-48" style="edgeStyle=orthogonalEdgeStyle;rounded=0;orthogonalLoop=1;jettySize=auto;html=1;entryX=0.5;entryY=0;entryDx=0;entryDy=0;" edge="1" parent="1" source="7jU_pNBLG3XUP3m-4l1U-38">
          <mxGeometry relative="1" as="geometry">
            <mxPoint x="635.0000000000002" y="1100" as="targetPoint" />
          </mxGeometry>
        </mxCell>
        <mxCell id="7jU_pNBLG3XUP3m-4l1U-49" value="H" style="edgeLabel;html=1;align=center;verticalAlign=middle;resizable=0;points=[];" vertex="1" connectable="0" parent="7jU_pNBLG3XUP3m-4l1U-48">
          <mxGeometry x="-0.5123" relative="1" as="geometry">
            <mxPoint as="offset" />
          </mxGeometry>
        </mxCell>
        <mxCell id="7jU_pNBLG3XUP3m-4l1U-51" style="edgeStyle=orthogonalEdgeStyle;rounded=0;orthogonalLoop=1;jettySize=auto;html=1;entryX=0.5;entryY=0;entryDx=0;entryDy=0;" edge="1" parent="1" source="7jU_pNBLG3XUP3m-4l1U-38" target="7jU_pNBLG3XUP3m-4l1U-40">
          <mxGeometry relative="1" as="geometry" />
        </mxCell>
        <mxCell id="7jU_pNBLG3XUP3m-4l1U-52" value="I" style="edgeLabel;html=1;align=center;verticalAlign=middle;resizable=0;points=[];" vertex="1" connectable="0" parent="7jU_pNBLG3XUP3m-4l1U-51">
          <mxGeometry x="-0.1704" y="2" relative="1" as="geometry">
            <mxPoint as="offset" />
          </mxGeometry>
        </mxCell>
        <mxCell id="7jU_pNBLG3XUP3m-4l1U-38" value="Termék megjelölése?" style="rhombus;whiteSpace=wrap;html=1;" vertex="1" parent="1">
          <mxGeometry x="420" y="960" width="110" height="110" as="geometry" />
        </mxCell>
        <mxCell id="7jU_pNBLG3XUP3m-4l1U-40" value="KI: &quot;Megvásárolta a terméket?&quot;" style="shape=parallelogram;perimeter=parallelogramPerimeter;whiteSpace=wrap;html=1;fixedSize=1;" vertex="1" parent="1">
          <mxGeometry x="402.5" y="1115" width="145" height="60" as="geometry" />
        </mxCell>
        <mxCell id="7jU_pNBLG3XUP3m-4l1U-41" value="Termék megjelölése megvásároltként" style="rounded=0;whiteSpace=wrap;html=1;" vertex="1" parent="1">
          <mxGeometry x="410" y="1225" width="120" height="60" as="geometry" />
        </mxCell>
        <mxCell id="7jU_pNBLG3XUP3m-4l1U-43" style="edgeStyle=orthogonalEdgeStyle;rounded=0;orthogonalLoop=1;jettySize=auto;html=1;entryX=0.546;entryY=0.019;entryDx=0;entryDy=0;entryPerimeter=0;" edge="1" parent="1" source="7jU_pNBLG3XUP3m-4l1U-40" target="7jU_pNBLG3XUP3m-4l1U-41">
          <mxGeometry relative="1" as="geometry" />
        </mxCell>
        <mxCell id="7jU_pNBLG3XUP3m-4l1U-70" style="edgeStyle=orthogonalEdgeStyle;rounded=0;orthogonalLoop=1;jettySize=auto;html=1;endArrow=none;endFill=0;" edge="1" parent="1" source="7jU_pNBLG3XUP3m-4l1U-47">
          <mxGeometry relative="1" as="geometry">
            <mxPoint x="700" y="730" as="targetPoint" />
          </mxGeometry>
        </mxCell>
        <mxCell id="7jU_pNBLG3XUP3m-4l1U-47" value="Termék törlése?" style="rhombus;whiteSpace=wrap;html=1;" vertex="1" parent="1">
          <mxGeometry x="590" y="1100" width="90" height="90" as="geometry" />
        </mxCell>
        <mxCell id="7jU_pNBLG3XUP3m-4l1U-53" value="KI: &quot;Törli a terméket?&quot;" style="shape=parallelogram;perimeter=parallelogramPerimeter;whiteSpace=wrap;html=1;fixedSize=1;" vertex="1" parent="1">
          <mxGeometry x="555" y="1225" width="145" height="60" as="geometry" />
        </mxCell>
        <mxCell id="7jU_pNBLG3XUP3m-4l1U-54" value="Termék törlése a listáról" style="rounded=0;whiteSpace=wrap;html=1;" vertex="1" parent="1">
          <mxGeometry x="562.5" y="1335" width="120" height="60" as="geometry" />
        </mxCell>
        <mxCell id="7jU_pNBLG3XUP3m-4l1U-65" style="edgeStyle=orthogonalEdgeStyle;rounded=0;orthogonalLoop=1;jettySize=auto;html=1;entryX=0.5;entryY=0;entryDx=0;entryDy=0;" edge="1" parent="1" source="7jU_pNBLG3XUP3m-4l1U-56">
          <mxGeometry relative="1" as="geometry">
            <mxPoint x="790" y="750" as="targetPoint" />
          </mxGeometry>
        </mxCell>
        <mxCell id="7jU_pNBLG3XUP3m-4l1U-56" value="Meglévő lista törlése?" style="rhombus;whiteSpace=wrap;html=1;" vertex="1" parent="1">
          <mxGeometry x="735" y="595" width="110" height="110" as="geometry" />
        </mxCell>
        <mxCell id="7jU_pNBLG3XUP3m-4l1U-57" style="edgeStyle=orthogonalEdgeStyle;rounded=0;orthogonalLoop=1;jettySize=auto;html=1;entryX=0.549;entryY=0.047;entryDx=0;entryDy=0;entryPerimeter=0;" edge="1" parent="1">
          <mxGeometry relative="1" as="geometry">
            <mxPoint x="635" y="1190" as="sourcePoint" />
            <mxPoint x="634.605" y="1224.82" as="targetPoint" />
          </mxGeometry>
        </mxCell>
        <mxCell id="7jU_pNBLG3XUP3m-4l1U-66" style="edgeStyle=orthogonalEdgeStyle;rounded=0;orthogonalLoop=1;jettySize=auto;html=1;entryX=0.5;entryY=0;entryDx=0;entryDy=0;" edge="1" parent="1" target="7jU_pNBLG3XUP3m-4l1U-63">
          <mxGeometry relative="1" as="geometry">
            <mxPoint x="790" y="810" as="sourcePoint" />
          </mxGeometry>
        </mxCell>
        <mxCell id="7jU_pNBLG3XUP3m-4l1U-62" value="KI: &quot;Törli a listát?&quot;" style="shape=parallelogram;perimeter=parallelogramPerimeter;whiteSpace=wrap;html=1;fixedSize=1;" vertex="1" parent="1">
          <mxGeometry x="705" y="750" width="145" height="60" as="geometry" />
        </mxCell>
        <mxCell id="7jU_pNBLG3XUP3m-4l1U-72" style="edgeStyle=orthogonalEdgeStyle;rounded=0;orthogonalLoop=1;jettySize=auto;html=1;endArrow=none;endFill=0;" edge="1" parent="1" source="7jU_pNBLG3XUP3m-4l1U-63">
          <mxGeometry relative="1" as="geometry">
            <mxPoint x="790" y="1576" as="targetPoint" />
          </mxGeometry>
        </mxCell>
        <mxCell id="7jU_pNBLG3XUP3m-4l1U-63" value="Lista törlése" style="rounded=0;whiteSpace=wrap;html=1;" vertex="1" parent="1">
          <mxGeometry x="730" y="860" width="120" height="60" as="geometry" />
        </mxCell>
        <mxCell id="7jU_pNBLG3XUP3m-4l1U-68" style="edgeStyle=orthogonalEdgeStyle;rounded=0;orthogonalLoop=1;jettySize=auto;html=1;entryX=0.548;entryY=0.052;entryDx=0;entryDy=0;entryPerimeter=0;" edge="1" parent="1" source="7jU_pNBLG3XUP3m-4l1U-53" target="7jU_pNBLG3XUP3m-4l1U-54">
          <mxGeometry relative="1" as="geometry" />
        </mxCell>
        <mxCell id="7jU_pNBLG3XUP3m-4l1U-71" value="" style="endArrow=classic;html=1;rounded=0;" edge="1" parent="1">
          <mxGeometry width="50" height="50" relative="1" as="geometry">
            <mxPoint x="700" y="730" as="sourcePoint" />
            <mxPoint x="285" y="730" as="targetPoint" />
          </mxGeometry>
        </mxCell>
        <mxCell id="7jU_pNBLG3XUP3m-4l1U-74" value="" style="endArrow=classic;html=1;rounded=0;" edge="1" parent="1">
          <mxGeometry width="50" height="50" relative="1" as="geometry">
            <mxPoint x="790" y="1577" as="sourcePoint" />
            <mxPoint x="520" y="1580" as="targetPoint" />
          </mxGeometry>
        </mxCell>
        <mxCell id="7jU_pNBLG3XUP3m-4l1U-75" value="" style="endArrow=classic;html=1;rounded=0;" edge="1" parent="1">
          <mxGeometry width="50" height="50" relative="1" as="geometry">
            <mxPoint x="285" y="1580" as="sourcePoint" />
            <mxPoint x="520" y="1580" as="targetPoint" />
          </mxGeometry>
        </mxCell>
        <mxCell id="7jU_pNBLG3XUP3m-4l1U-76" value="" style="endArrow=classic;html=1;rounded=0;entryX=0.5;entryY=0;entryDx=0;entryDy=0;" edge="1" parent="1" target="TDxHErqlgbBZtYlwiEiw-3">
          <mxGeometry width="50" height="50" relative="1" as="geometry">
            <mxPoint x="520" y="1580" as="sourcePoint" />
            <mxPoint x="440" y="1610" as="targetPoint" />
          </mxGeometry>
        </mxCell>
      </root>
    </mxGraphModel>
  </diagram>
  <diagram id="1nPV9NzStM8Vhf1v2azk" name="Adatrögzítés">
    <mxGraphModel dx="2191" dy="1095" grid="1" gridSize="10" guides="1" tooltips="1" connect="1" arrows="1" fold="1" page="1" pageScale="1" pageWidth="850" pageHeight="1100" math="0" shadow="0">
      <root>
        <mxCell id="0" />
        <mxCell id="1" parent="0" />
        <mxCell id="5B0Ju5LV36Q_AsO1NJx--1" value="&lt;font style=&quot;font-size: 16px;&quot;&gt;Adatrögzítés&lt;/font&gt;" style="text;html=1;align=center;verticalAlign=middle;whiteSpace=wrap;rounded=0;" parent="1" vertex="1">
          <mxGeometry width="90" height="30" as="geometry" />
        </mxCell>
        <mxCell id="qx6XF6l7aeN1_yj48pUJ-2" style="edgeStyle=orthogonalEdgeStyle;rounded=0;orthogonalLoop=1;jettySize=auto;html=1;entryX=0.5;entryY=0;entryDx=0;entryDy=0;" edge="1" parent="1" source="5B0Ju5LV36Q_AsO1NJx--2" target="qx6XF6l7aeN1_yj48pUJ-1">
          <mxGeometry relative="1" as="geometry" />
        </mxCell>
        <mxCell id="5B0Ju5LV36Q_AsO1NJx--2" value="START" style="ellipse;whiteSpace=wrap;html=1;" parent="1" vertex="1">
          <mxGeometry x="55" y="50" width="120" height="80" as="geometry" />
        </mxCell>
        <mxCell id="5B0Ju5LV36Q_AsO1NJx--3" value="STOP" style="ellipse;whiteSpace=wrap;html=1;" parent="1" vertex="1">
          <mxGeometry x="710" y="1980" width="120" height="80" as="geometry" />
        </mxCell>
        <mxCell id="G98494opqD1XjpzsDPlb-1" style="edgeStyle=orthogonalEdgeStyle;rounded=0;orthogonalLoop=1;jettySize=auto;html=1;entryX=0.5;entryY=0;entryDx=0;entryDy=0;" edge="1" parent="1" source="qx6XF6l7aeN1_yj48pUJ-1" target="qx6XF6l7aeN1_yj48pUJ-3">
          <mxGeometry relative="1" as="geometry" />
        </mxCell>
        <mxCell id="qx6XF6l7aeN1_yj48pUJ-1" value="KI: Felhasználói lehetőségek megjelenítése" style="shape=parallelogram;perimeter=parallelogramPerimeter;whiteSpace=wrap;html=1;fixedSize=1;" vertex="1" parent="1">
          <mxGeometry x="20" y="210" width="190" height="90" as="geometry" />
        </mxCell>
        <mxCell id="2Zp4G7QggXzZywiBFCcL-2" style="edgeStyle=orthogonalEdgeStyle;rounded=0;orthogonalLoop=1;jettySize=auto;html=1;entryX=0.5;entryY=0;entryDx=0;entryDy=0;" edge="1" parent="1" source="qx6XF6l7aeN1_yj48pUJ-3" target="2Zp4G7QggXzZywiBFCcL-1">
          <mxGeometry relative="1" as="geometry" />
        </mxCell>
        <mxCell id="1miMihC2XciiDSVo23-y-2" style="edgeStyle=orthogonalEdgeStyle;rounded=0;orthogonalLoop=1;jettySize=auto;html=1;entryX=0.5;entryY=0;entryDx=0;entryDy=0;" edge="1" parent="1" source="qx6XF6l7aeN1_yj48pUJ-3" target="1miMihC2XciiDSVo23-y-1">
          <mxGeometry relative="1" as="geometry" />
        </mxCell>
        <mxCell id="qx6XF6l7aeN1_yj48pUJ-3" value="Új lista?" style="rhombus;whiteSpace=wrap;html=1;" vertex="1" parent="1">
          <mxGeometry x="75" y="350" width="80" height="80" as="geometry" />
        </mxCell>
        <mxCell id="vL7memlVOvOJpX5U4t9i-1" style="edgeStyle=orthogonalEdgeStyle;rounded=0;orthogonalLoop=1;jettySize=auto;html=1;endArrow=none;endFill=0;" edge="1" parent="1" source="2Zp4G7QggXzZywiBFCcL-1">
          <mxGeometry relative="1" as="geometry">
            <mxPoint x="20" y="330" as="targetPoint" />
          </mxGeometry>
        </mxCell>
        <mxCell id="2Zp4G7QggXzZywiBFCcL-1" value="BE: Lista neve megadása" style="shape=parallelogram;perimeter=parallelogramPerimeter;whiteSpace=wrap;html=1;fixedSize=1;" vertex="1" parent="1">
          <mxGeometry x="55" y="490" width="120" height="60" as="geometry" />
        </mxCell>
        <mxCell id="vL7memlVOvOJpX5U4t9i-2" value="" style="endArrow=classic;html=1;rounded=0;" edge="1" parent="1">
          <mxGeometry width="50" height="50" relative="1" as="geometry">
            <mxPoint x="20" y="330" as="sourcePoint" />
            <mxPoint x="120" y="330" as="targetPoint" />
          </mxGeometry>
        </mxCell>
        <mxCell id="NUM_BXLDld2VX_Vzyn12-3" style="edgeStyle=orthogonalEdgeStyle;rounded=0;orthogonalLoop=1;jettySize=auto;html=1;entryX=0.5;entryY=0;entryDx=0;entryDy=0;" edge="1" parent="1" source="vL7memlVOvOJpX5U4t9i-4" target="uwajTftLtT7JvDE81xGq-1">
          <mxGeometry relative="1" as="geometry" />
        </mxCell>
        <mxCell id="vL7memlVOvOJpX5U4t9i-4" value="Új termék?" style="rhombus;whiteSpace=wrap;html=1;" vertex="1" parent="1">
          <mxGeometry x="245.5" y="770" width="80" height="80" as="geometry" />
        </mxCell>
        <mxCell id="NUM_BXLDld2VX_Vzyn12-4" style="edgeStyle=orthogonalEdgeStyle;rounded=0;orthogonalLoop=1;jettySize=auto;html=1;entryX=0.5;entryY=0;entryDx=0;entryDy=0;" edge="1" parent="1" source="uwajTftLtT7JvDE81xGq-1" target="NUM_BXLDld2VX_Vzyn12-1">
          <mxGeometry relative="1" as="geometry" />
        </mxCell>
        <mxCell id="uwajTftLtT7JvDE81xGq-1" value="KI: &quot;Adja meg a termék adatait!&quot;" style="shape=parallelogram;perimeter=parallelogramPerimeter;whiteSpace=wrap;html=1;fixedSize=1;" vertex="1" parent="1">
          <mxGeometry x="225.5" y="890" width="120" height="60" as="geometry" />
        </mxCell>
        <mxCell id="NUM_BXLDld2VX_Vzyn12-5" style="edgeStyle=orthogonalEdgeStyle;rounded=0;orthogonalLoop=1;jettySize=auto;html=1;entryX=0.5;entryY=0;entryDx=0;entryDy=0;" edge="1" parent="1" source="NUM_BXLDld2VX_Vzyn12-1" target="NUM_BXLDld2VX_Vzyn12-2">
          <mxGeometry relative="1" as="geometry" />
        </mxCell>
        <mxCell id="NUM_BXLDld2VX_Vzyn12-1" value="BE: nev + mennyiseg + megjegyzes hozzáadása" style="shape=parallelogram;perimeter=parallelogramPerimeter;whiteSpace=wrap;html=1;fixedSize=1;" vertex="1" parent="1">
          <mxGeometry x="178" y="990" width="215" height="90" as="geometry" />
        </mxCell>
        <mxCell id="NUM_BXLDld2VX_Vzyn12-7" style="edgeStyle=orthogonalEdgeStyle;rounded=0;orthogonalLoop=1;jettySize=auto;html=1;entryX=0.5;entryY=0;entryDx=0;entryDy=0;" edge="1" parent="1" source="NUM_BXLDld2VX_Vzyn12-2" target="NUM_BXLDld2VX_Vzyn12-6">
          <mxGeometry relative="1" as="geometry" />
        </mxCell>
        <mxCell id="NUM_BXLDld2VX_Vzyn12-8" value="I" style="edgeLabel;html=1;align=center;verticalAlign=middle;resizable=0;points=[];" vertex="1" connectable="0" parent="NUM_BXLDld2VX_Vzyn12-7">
          <mxGeometry x="-0.2" y="-1" relative="1" as="geometry">
            <mxPoint as="offset" />
          </mxGeometry>
        </mxCell>
        <mxCell id="NUM_BXLDld2VX_Vzyn12-11" style="edgeStyle=orthogonalEdgeStyle;rounded=0;orthogonalLoop=1;jettySize=auto;html=1;entryX=1;entryY=0.5;entryDx=0;entryDy=0;" edge="1" parent="1" source="NUM_BXLDld2VX_Vzyn12-2" target="NUM_BXLDld2VX_Vzyn12-10">
          <mxGeometry relative="1" as="geometry" />
        </mxCell>
        <mxCell id="NUM_BXLDld2VX_Vzyn12-12" value="H" style="edgeLabel;html=1;align=center;verticalAlign=middle;resizable=0;points=[];" vertex="1" connectable="0" parent="NUM_BXLDld2VX_Vzyn12-11">
          <mxGeometry x="-0.1333" y="-2" relative="1" as="geometry">
            <mxPoint as="offset" />
          </mxGeometry>
        </mxCell>
        <mxCell id="NUM_BXLDld2VX_Vzyn12-2" value="Kategória van megadva?" style="rhombus;whiteSpace=wrap;html=1;" vertex="1" parent="1">
          <mxGeometry x="230.5" y="1110" width="110" height="110" as="geometry" />
        </mxCell>
        <mxCell id="NUM_BXLDld2VX_Vzyn12-14" style="edgeStyle=orthogonalEdgeStyle;rounded=0;orthogonalLoop=1;jettySize=auto;html=1;" edge="1" parent="1" source="NUM_BXLDld2VX_Vzyn12-6" target="NUM_BXLDld2VX_Vzyn12-13">
          <mxGeometry relative="1" as="geometry" />
        </mxCell>
        <mxCell id="NUM_BXLDld2VX_Vzyn12-6" value="BE: kategoria megadása" style="shape=parallelogram;perimeter=parallelogramPerimeter;whiteSpace=wrap;html=1;fixedSize=1;" vertex="1" parent="1">
          <mxGeometry x="225.5" y="1260" width="120" height="60" as="geometry" />
        </mxCell>
        <mxCell id="NUM_BXLDld2VX_Vzyn12-10" value="Általános kategóriához adás" style="rounded=0;whiteSpace=wrap;html=1;" vertex="1" parent="1">
          <mxGeometry x="75" y="1135" width="120" height="60" as="geometry" />
        </mxCell>
        <mxCell id="XYkr3Iz4ubWCbizwjRDY-4" style="edgeStyle=orthogonalEdgeStyle;rounded=0;orthogonalLoop=1;jettySize=auto;html=1;endArrow=none;endFill=0;" edge="1" parent="1" source="NUM_BXLDld2VX_Vzyn12-13">
          <mxGeometry relative="1" as="geometry">
            <mxPoint x="410" y="620.0000000000002" as="targetPoint" />
          </mxGeometry>
        </mxCell>
        <mxCell id="Fmf92LHLaoQ_8qitoFle-2" value="I" style="edgeLabel;html=1;align=center;verticalAlign=middle;resizable=0;points=[];" vertex="1" connectable="0" parent="XYkr3Iz4ubWCbizwjRDY-4">
          <mxGeometry x="-0.9059" y="-1" relative="1" as="geometry">
            <mxPoint as="offset" />
          </mxGeometry>
        </mxCell>
        <mxCell id="Fmf92LHLaoQ_8qitoFle-4" style="edgeStyle=orthogonalEdgeStyle;rounded=0;orthogonalLoop=1;jettySize=auto;html=1;" edge="1" parent="1" source="NUM_BXLDld2VX_Vzyn12-13">
          <mxGeometry relative="1" as="geometry">
            <mxPoint x="440" y="1540" as="targetPoint" />
            <Array as="points">
              <mxPoint x="285" y="1540" />
            </Array>
          </mxGeometry>
        </mxCell>
        <mxCell id="NUM_BXLDld2VX_Vzyn12-13" value="Új termék?" style="rhombus;whiteSpace=wrap;html=1;" vertex="1" parent="1">
          <mxGeometry x="245" y="1370" width="80" height="80" as="geometry" />
        </mxCell>
        <mxCell id="XYkr3Iz4ubWCbizwjRDY-2" style="edgeStyle=orthogonalEdgeStyle;rounded=0;orthogonalLoop=1;jettySize=auto;html=1;entryX=0.5;entryY=0;entryDx=0;entryDy=0;" edge="1" parent="1" source="1miMihC2XciiDSVo23-y-1" target="XYkr3Iz4ubWCbizwjRDY-1">
          <mxGeometry relative="1" as="geometry" />
        </mxCell>
        <mxCell id="XYkr3Iz4ubWCbizwjRDY-6" value="I" style="edgeLabel;html=1;align=center;verticalAlign=middle;resizable=0;points=[];" vertex="1" connectable="0" parent="XYkr3Iz4ubWCbizwjRDY-2">
          <mxGeometry x="-0.3071" relative="1" as="geometry">
            <mxPoint as="offset" />
          </mxGeometry>
        </mxCell>
        <mxCell id="Fmf92LHLaoQ_8qitoFle-1" style="edgeStyle=orthogonalEdgeStyle;rounded=0;orthogonalLoop=1;jettySize=auto;html=1;endArrow=classic;endFill=1;" edge="1" parent="1" source="1miMihC2XciiDSVo23-y-1">
          <mxGeometry relative="1" as="geometry">
            <mxPoint x="440" y="1540" as="targetPoint" />
            <Array as="points">
              <mxPoint x="720" y="525" />
              <mxPoint x="720" y="1540" />
            </Array>
          </mxGeometry>
        </mxCell>
        <mxCell id="1miMihC2XciiDSVo23-y-1" value="Meglévő lista szerkesztése?" style="rhombus;whiteSpace=wrap;html=1;" vertex="1" parent="1">
          <mxGeometry x="230" y="470" width="110" height="110" as="geometry" />
        </mxCell>
        <mxCell id="XYkr3Iz4ubWCbizwjRDY-3" style="edgeStyle=orthogonalEdgeStyle;rounded=0;orthogonalLoop=1;jettySize=auto;html=1;entryX=0.5;entryY=0;entryDx=0;entryDy=0;" edge="1" parent="1" source="XYkr3Iz4ubWCbizwjRDY-1" target="vL7memlVOvOJpX5U4t9i-4">
          <mxGeometry relative="1" as="geometry" />
        </mxCell>
        <mxCell id="XYkr3Iz4ubWCbizwjRDY-1" value="Választott lista betöltése" style="rounded=0;whiteSpace=wrap;html=1;" vertex="1" parent="1">
          <mxGeometry x="225" y="660" width="120" height="60" as="geometry" />
        </mxCell>
        <mxCell id="XYkr3Iz4ubWCbizwjRDY-5" value="" style="endArrow=classic;html=1;rounded=0;" edge="1" parent="1">
          <mxGeometry width="50" height="50" relative="1" as="geometry">
            <mxPoint x="410" y="620" as="sourcePoint" />
            <mxPoint x="285" y="620" as="targetPoint" />
          </mxGeometry>
        </mxCell>
        <mxCell id="Fmf92LHLaoQ_8qitoFle-7" style="edgeStyle=orthogonalEdgeStyle;rounded=0;orthogonalLoop=1;jettySize=auto;html=1;entryX=0.5;entryY=0;entryDx=0;entryDy=0;" edge="1" parent="1" source="Fmf92LHLaoQ_8qitoFle-3" target="Fmf92LHLaoQ_8qitoFle-6">
          <mxGeometry relative="1" as="geometry" />
        </mxCell>
        <mxCell id="Fmf92LHLaoQ_8qitoFle-8" value="I" style="edgeLabel;html=1;align=center;verticalAlign=middle;resizable=0;points=[];" vertex="1" connectable="0" parent="Fmf92LHLaoQ_8qitoFle-7">
          <mxGeometry x="-0.2" y="1" relative="1" as="geometry">
            <mxPoint as="offset" />
          </mxGeometry>
        </mxCell>
        <mxCell id="Fmf92LHLaoQ_8qitoFle-9" style="edgeStyle=orthogonalEdgeStyle;rounded=0;orthogonalLoop=1;jettySize=auto;html=1;entryX=0.5;entryY=0;entryDx=0;entryDy=0;" edge="1" parent="1" source="Fmf92LHLaoQ_8qitoFle-3" target="Fmf92LHLaoQ_8qitoFle-10">
          <mxGeometry relative="1" as="geometry">
            <mxPoint x="640" y="1780" as="targetPoint" />
          </mxGeometry>
        </mxCell>
        <mxCell id="Fmf92LHLaoQ_8qitoFle-13" value="H" style="edgeLabel;html=1;align=center;verticalAlign=middle;resizable=0;points=[];" vertex="1" connectable="0" parent="Fmf92LHLaoQ_8qitoFle-9">
          <mxGeometry x="-0.6534" y="3" relative="1" as="geometry">
            <mxPoint as="offset" />
          </mxGeometry>
        </mxCell>
        <mxCell id="Fmf92LHLaoQ_8qitoFle-3" value="Értesítés küldése?" style="rhombus;whiteSpace=wrap;html=1;" vertex="1" parent="1">
          <mxGeometry x="400" y="1620" width="80" height="80" as="geometry" />
        </mxCell>
        <mxCell id="Fmf92LHLaoQ_8qitoFle-5" value="" style="endArrow=classic;html=1;rounded=0;entryX=0.5;entryY=0;entryDx=0;entryDy=0;" edge="1" parent="1" target="Fmf92LHLaoQ_8qitoFle-3">
          <mxGeometry width="50" height="50" relative="1" as="geometry">
            <mxPoint x="440" y="1540" as="sourcePoint" />
            <mxPoint x="70" y="1520" as="targetPoint" />
          </mxGeometry>
        </mxCell>
        <mxCell id="Fmf92LHLaoQ_8qitoFle-6" value="Bevásárlási értesítés beállítása" style="rounded=0;whiteSpace=wrap;html=1;" vertex="1" parent="1">
          <mxGeometry x="380" y="1750" width="120" height="60" as="geometry" />
        </mxCell>
        <mxCell id="Fmf92LHLaoQ_8qitoFle-12" style="edgeStyle=orthogonalEdgeStyle;rounded=0;orthogonalLoop=1;jettySize=auto;html=1;entryX=0.5;entryY=0;entryDx=0;entryDy=0;" edge="1" parent="1" source="Fmf92LHLaoQ_8qitoFle-10" target="Fmf92LHLaoQ_8qitoFle-11">
          <mxGeometry relative="1" as="geometry" />
        </mxCell>
        <mxCell id="Fmf92LHLaoQ_8qitoFle-15" style="edgeStyle=orthogonalEdgeStyle;rounded=0;orthogonalLoop=1;jettySize=auto;html=1;entryX=0.5;entryY=0;entryDx=0;entryDy=0;" edge="1" parent="1" source="Fmf92LHLaoQ_8qitoFle-10" target="5B0Ju5LV36Q_AsO1NJx--3">
          <mxGeometry relative="1" as="geometry" />
        </mxCell>
        <mxCell id="Fmf92LHLaoQ_8qitoFle-10" value="Valós idejű szinkronizálás aktív?" style="rhombus;whiteSpace=wrap;html=1;" vertex="1" parent="1">
          <mxGeometry x="580" y="1730" width="100" height="100" as="geometry" />
        </mxCell>
        <mxCell id="Fmf92LHLaoQ_8qitoFle-11" value="Adatszinkronizálás" style="rounded=0;whiteSpace=wrap;html=1;" vertex="1" parent="1">
          <mxGeometry x="570" y="1870" width="120" height="60" as="geometry" />
        </mxCell>
      </root>
    </mxGraphModel>
  </diagram>
</mxfile>
